<svg xmlns="http://www.w3.org/2000/svg" width="28" height="30" viewBox="0 0 28 30" fill="none">
  <g filter="url(#filter0_d_1_267)">
    <path d="M18 5V4.2C18 3.0799 18 2.51984 17.782 2.09202C17.5903 1.71569 17.2843 1.40973 16.908 1.21799C16.4802 1 15.9201 1 14.8 1H13.2C12.0799 1 11.5198 1 11.092 1.21799C10.7157 1.40973 10.4097 1.71569 10.218 2.09202C10 2.51984 10 3.0799 10 4.2V5M12 10.5V15.5M16 10.5V15.5M5 5H23M21 5V16.2C21 17.8802 21 18.7202 20.673 19.362C20.3854 19.9265 19.9265 20.3854 19.362 20.673C18.7202 21 17.8802 21 16.2 21H11.8C10.1198 21 9.27976 21 8.63803 20.673C8.07354 20.3854 7.6146 19.9265 7.32698 19.362C7 18.7202 7 17.8802 7 16.2V5" stroke="black" stroke-width="2" stroke-linecap="round" stroke-linejoin="round" shape-rendering="crispEdges"/>
  </g>
  <defs>
    <filter id="filter0_d_1_267" x="0" y="0" width="28" height="30" filterUnits="userSpaceOnUse" color-interpolation-filters="sRGB">
      <feFlood flood-opacity="0" result="BackgroundImageFix"/>
      <feColorMatrix in="SourceAlpha" type="matrix" values="0 0 0 0 0 0 0 0 0 0 0 0 0 0 0 0 0 0 127 0" result="hardAlpha"/>
      <feOffset dy="4"/>
      <feGaussianBlur stdDeviation="2"/>
      <feComposite in2="hardAlpha" operator="out"/>
      <feColorMatrix type="matrix" values="0 0 0 0 0 0 0 0 0 0 0 0 0 0 0 0 0 0 0.25 0"/>
      <feBlend mode="normal" in2="BackgroundImageFix" result="effect1_dropShadow_1_267"/>
      <feBlend mode="normal" in="SourceGraphic" in2="effect1_dropShadow_1_267" result="shape"/>
    </filter>
  </defs>
</svg>